<?xml version="1.0" encoding="iso-8859-1"?>
<!-- Uploaded to: SVG Repo, www.svgrepo.com, Generator: SVG Repo Mixer Tools -->
<svg fill="#ffffff" height="800px" width="800px" version="1.1" id="Capa_1" xmlns="http://www.w3.org/2000/svg" xmlns:xlink="http://www.w3.org/1999/xlink" 
	 viewBox="0 0 461.976 461.976" xml:space="preserve">
<g>
	<path d="M454.476,118.954c-4.044,0-7.331,3.203-7.485,7.209H288.663c-0.29,0-0.576,0.021-0.858,0.053
		c-0.074,0.008-0.147,0.023-0.221,0.034c-0.214,0.031-0.426,0.069-0.634,0.118c-0.035,0.008-0.071,0.011-0.106,0.02l-23.377,5.845
		c-4.898,1.224-8.69,4.806-10.299,9.356l-23.922,3.987c-9.824,1.637-17.363,8.301-19.527,16.634h-7.278v-21.046h28.546
		c8.111,0,14.709-6.599,14.709-14.709v-10.551c0-9.915-6.691-18.624-16.271-21.179l-60.922-16.246
		c-24.859-6.629-50.508-9.99-76.235-9.99H60.748c-9.085,0-17.333,5.715-20.523,14.223l-18.119,48.318
		c-0.015,0.04-0.023,0.082-0.037,0.122c-0.071,0.201-0.134,0.405-0.188,0.614c-0.02,0.076-0.041,0.151-0.058,0.227
		c-0.049,0.214-0.086,0.432-0.116,0.653c-0.009,0.063-0.022,0.126-0.029,0.189c-0.03,0.272-0.048,0.548-0.048,0.828v35.756h-6.919
		C6.599,169.418,0,176.017,0,184.127v158.604c0,8.111,6.599,14.709,14.709,14.709h6.926c0.158,19.902,16.391,36.046,36.33,36.046
		h108.14c20.036,0,36.337-16.301,36.337-36.337v-21.337h7.278c2.164,8.333,9.702,14.998,19.527,16.635l23.922,3.987
		c1.609,4.551,5.402,8.133,10.299,9.357l23.376,5.844c0.035,0.009,0.071,0.012,0.106,0.02c0.209,0.049,0.421,0.087,0.636,0.118
		c0.073,0.011,0.146,0.025,0.219,0.034c0.282,0.032,0.568,0.052,0.858,0.052h158.328c0.154,4.006,3.441,7.209,7.485,7.209
		c4.142,0,7.5-3.358,7.5-7.5V126.454C461.976,122.311,458.618,118.954,454.476,118.954z M317.5,299.186c-4.142,0-7.5,3.358-7.5,7.5
		v50.174h-13.837v-73.109c2.638,1.027,5.503,1.597,8.5,1.597h25.674c12.958,0,23.5-10.542,23.5-23.5v-25.674
		c0-12.958-10.542-23.5-23.5-23.5h-25.674c-2.997,0-5.862,0.57-8.5,1.597v-73.109H310v50.174c0,4.142,3.358,7.5,7.5,7.5
		s7.5-3.358,7.5-7.5v-50.174h49.884V356.86H325v-50.174C325,302.543,321.642,299.186,317.5,299.186z M296.163,236.174
		c0-4.688,3.813-8.5,8.5-8.5h25.674c4.687,0,8.5,3.813,8.5,8.5v25.674c0,4.688-3.813,8.5-8.5,8.5h-25.674
		c-4.687,0-8.5-3.813-8.5-8.5V236.174z M389.883,241.511v-13.837h28.256v13.837H389.883z M418.139,256.511v13.837h-28.256v-13.837
		H418.139z M389.883,212.674v-13.837h28.256v13.837H389.883z M389.883,285.348h28.256v13.837h-28.256V285.348z M418.139,183.837
		h-28.256V170h28.256V183.837z M389.883,314.186h28.256v13.837h-28.256V314.186z M418.139,155h-28.256v-13.837h28.256V155z
		 M389.883,343.023h28.256v13.837h-28.256V343.023z M433.139,141.163h13.837V356.86h-13.837V141.163z M54.27,87.978
		c1.007-2.685,3.61-4.489,6.478-4.489h31.521c24.423,0,48.772,3.191,72.37,9.484l60.922,16.246c3.024,0.806,5.136,3.555,5.136,6.685
		v10.26H130.349v-6.919c0-12.086-9.833-21.918-21.918-21.918H86.802c-12.086,0-21.918,9.832-21.918,21.918v6.919H39.95L54.27,87.978
		z M79.884,126.163v-6.919c0-3.814,3.104-6.918,6.918-6.918h21.628c3.815,0,6.918,3.104,6.918,6.918v6.919H79.884z M15,184.418
		h6.628v158.023H15V184.418z M36.628,357.151V141.163h42.674v64.302H65.174c-8.111,0-14.709,6.599-14.709,14.709v79.302
		c0,8.111,6.599,14.709,14.709,14.709h14.128v64.302H57.965C46.2,378.488,36.628,368.916,36.628,357.151z M65.465,299.186v-78.721
		h42.965c3.815,0,6.918,3.104,6.918,6.918v64.884c0,3.815-3.104,6.918-6.918,6.918H65.465z M187.441,357.151
		c0,11.765-9.572,21.337-21.337,21.337H94.302v-64.302h14.128c12.086,0,21.918-9.833,21.918-21.918v-64.884
		c0-12.086-9.833-21.918-21.918-21.918H94.302v-64.302h93.139V357.151z M202.441,177.209h6.628v143.604h-6.628V177.209z
		 M224.069,330.912V167.111c0-3.116,3.286-6.015,7.642-6.74l20.614-3.436v184.153l-20.614-3.436
		C227.355,336.926,224.069,334.028,224.069,330.912z M267.325,349.941v-7.209V155.291v-7.209v-1.354l13.837-3.459v92.906v25.674
		v92.906l-13.837-3.459V349.941z"/>
	<path d="M310.29,256.511h14.419c4.142,0,7.5-3.358,7.5-7.5s-3.358-7.5-7.5-7.5H310.29c-4.142,0-7.5,3.358-7.5,7.5
		S306.148,256.511,310.29,256.511z"/>
	<path d="M94.011,234.302c-4.142,0-7.5,3.357-7.5,7.5v36.046c0,4.143,3.358,7.5,7.5,7.5s7.5-3.357,7.5-7.5v-36.046
		C101.511,237.66,98.153,234.302,94.011,234.302z"/>
</g>
</svg>