<?xml version="1.0" encoding="iso-8859-1"?>
<!-- Uploaded to: SVG Repo, www.svgrepo.com, Generator: SVG Repo Mixer Tools -->
<svg height="800px" width="800px" version="1.1" id="Capa_1" xmlns="http://www.w3.org/2000/svg" xmlns:xlink="http://www.w3.org/1999/xlink" 
	 viewBox="0 0 496.04 496.04" xml:space="preserve">
<g>
	<g>
		<path style="fill:#ffffff;" d="M253.238,0.359c-1.423-0.447-2.999-0.39-4.511-0.284l-0.569,0.049l-0.845-0.049
			c-1.488-0.106-3.032-0.163-4.414,0.276C151.452,4.521,80.108,78.938,80.108,170.686c0,57.819,27.296,110.898,71.247,138.519
			l2.309,1.439c2.999,1.861,5.828,3.609,8.348,5.584c16.672,12.989,28.279,49.389,28.279,73.938c0,4.495,3.642,8.129,8.129,8.129
			h99.201c4.495,0,8.129-3.633,8.129-8.129c0-24.556,11.616-60.948,28.279-73.938c2.528-1.975,5.365-3.739,8.372-5.592l2.284-1.423
			c43.943-27.596,71.247-80.676,71.247-138.519C415.94,78.979,344.652,4.578,253.238,0.359z M220.253,207.207
			c6.584,8.129,16.525,13.437,27.775,13.437c11.006,0,20.76-5.088,27.353-12.924c6.576,8.421,16.704,13.949,28.19,13.949
			c0.797,0,1.577-0.024,2.357-0.073c-16.046,38.66-37.026,100.209-38.806,160.442h-38.18
			c-1.788-60.444-22.89-122.546-38.952-161.474c0.829,0.057,1.658,0.089,2.504,0.089
			C203.735,220.644,213.669,215.336,220.253,207.207z M336.052,295.443l-2.203,1.366c-3.235,2-6.6,4.081-9.811,6.592
			c-19.403,15.111-32.075,50.665-34.221,78.636h-6.413c2.105-65.785,28.873-134.999,44.341-169.749
			c7.194-6.568,11.713-16.03,11.713-26.515c0-3.731-2.544-6.991-6.178-7.893c-3.642-0.919-7.397,0.797-9.145,4.097
			c-0.577,1.097-4.373,8.372-9.762,20.191c-3.105,2.048-6.82,3.251-10.811,3.251c-10.827,0-19.639-8.811-19.639-19.647
			c0-0.122-0.065-0.219-0.073-0.341c0.008-0.236,0.073-0.447,0.073-0.683c0-4.487-3.633-8.129-8.129-8.129s-8.129,3.642-8.129,8.129
			c0,10.835-8.811,19.647-19.647,19.647c-10.827,0-19.639-8.811-19.639-19.647c0-4.487-3.642-8.129-8.129-8.129
			s-8.129,3.642-8.129,8.129c0,10.835-8.811,19.647-19.647,19.647c-4.04,0-7.795-1.227-10.925-3.325
			c-5.324-11.754-9.063-18.988-9.64-20.086c-1.731-3.316-5.519-5.023-9.145-4.129c-3.633,0.894-6.194,4.154-6.194,7.893
			c0,10.421,4.463,19.826,11.583,26.393c15.444,34.92,42.374,104.826,44.48,170.903h-6.413
			c-2.146-27.954-14.827-63.509-34.229-78.636c-3.211-2.504-6.552-4.576-9.779-6.576l-2.219-1.382
			c-39.253-24.67-63.639-72.482-63.639-124.757c0-83.619,65.524-151.338,149.167-154.167c0.48-0.016,0.943-0.081,1.398-0.179
			c0.593,0.033,1.382,0.041,2.17,0c0.463,0.098,0.943,0.163,1.431,0.171c83.643,2.837,149.159,70.548,149.159,154.175
			C399.683,222.993,375.297,270.797,336.052,295.443z"/>
		<path style="fill:#ffffff;" d="M297.864,402.553h-99.673c-4.487,0-8.129,3.633-8.129,8.129v25.743v25.743
			c0,4.495,3.642,8.129,8.129,8.129h14.664v17.615c0,4.495,3.642,8.129,8.129,8.129h54.088c4.495,0,8.129-3.633,8.129-8.129v-17.615
			h14.664c4.495,0,8.129-3.633,8.129-8.129v-25.743v-25.743C305.993,406.187,302.351,402.553,297.864,402.553z M206.32,418.81
			h83.415v9.486H206.32V418.81z M266.943,479.783h-37.839v-9.486h37.839V479.783z M289.736,454.04h-14.664h-54.096h-14.664v-9.486
			h83.415v9.486H289.736z"/>
	</g>
</g>
</svg>