<?xml version="1.0" encoding="iso-8859-1"?>
<!-- Uploaded to: SVG Repo, www.svgrepo.com, Generator: SVG Repo Mixer Tools -->
<!DOCTYPE svg PUBLIC "-//W3C//DTD SVG 1.1//EN" "http://www.w3.org/Graphics/SVG/1.1/DTD/svg11.dtd">
<svg fill="#000000" version="1.1" id="Capa_1" xmlns="http://www.w3.org/2000/svg" xmlns:xlink="http://www.w3.org/1999/xlink" 
	 width="800px" height="800px" viewBox="0 0 40.988 40.988"
	 xml:space="preserve">
<g>
	<g>
		<path d="M29.839,7.254c-0.143,0-0.256,0.115-0.256,0.258c0,0.209-0.17,0.377-0.377,0.377s-0.375-0.168-0.375-0.377
			c0-0.144-0.115-0.258-0.26-0.258c-0.143,0-0.258,0.115-0.258,0.258c0,0.492,0.399,0.894,0.895,0.894
			c0.492,0,0.893-0.399,0.893-0.894C30.099,7.368,29.984,7.254,29.839,7.254z"/>
		<path d="M29.568,10.627h-0.723c-0.18,0-0.324,0.146-0.324,0.325v0.099l0.146-0.146c0.041-0.041,0.104-0.041,0.146,0
			c0.041,0.039,0.041,0.104,0,0.144l-0.289,0.289v0.188l0.385-0.383c0.037-0.039,0.104-0.039,0.143,0
			c0.039,0.038,0.041,0.104,0,0.143l-0.525,0.525v0.065c0,0.037,0.009,0.069,0.021,0.104l0.603-0.603
			c0.039-0.039,0.104-0.039,0.145,0c0.041,0.041,0.041,0.104,0,0.146l-0.621,0.621c0.053,0.036,0.117,0.059,0.184,0.059h0.724
			c0.18,0,0.325-0.146,0.325-0.325v-0.925C29.894,10.774,29.748,10.627,29.568,10.627z"/>
		<path d="M30.916,13.067V7.505c0-0.16-0.131-0.291-0.291-0.291h-0.262v6.144h0.262C30.783,13.356,30.916,13.227,30.916,13.067z"/>
		<path d="M32.541,12.734h0.504V7.689h-0.504c-0.377,0-0.686,0.308-0.686,0.687v3.674C31.857,12.428,32.164,12.734,32.541,12.734z"
			/>
		<path d="M36.736,12.049V8.375c0-0.687-0.114-0.687-0.686-0.687h-2.34v5.045h2.34C36.613,12.734,36.736,12.734,36.736,12.049z"/>
		<path d="M36.96,40.295c0.02-0.117-0.002-0.244-0.076-0.354l-7.15-10.42v-2.168c0.381-0.104,0.664-0.449,0.664-0.86
			c0-0.413-0.283-0.761-0.664-0.862V15.479h0.703c0.506,0,0.916-0.41,0.916-0.916c0-0.246-0.1-0.47-0.258-0.634
			c0.309-0.168,0.518-0.489,0.518-0.862V7.505c0-0.545-0.442-0.987-0.987-0.987h-0.233L30.14,6.071
			c-0.002-0.006-0.007-0.012-0.009-0.019C30.045,5.923,29.87,5.77,29.517,5.77h-0.613c-0.354,0-0.531,0.153-0.615,0.284
			c-0.004,0.005-0.006,0.011-0.01,0.017l-0.25,0.447h-0.236c-0.545,0-0.988,0.442-0.988,0.987v5.562c0,0.401,0.244,0.748,0.59,0.901
			c-0.137,0.16-0.227,0.367-0.227,0.595c0,0.506,0.41,0.916,0.916,0.916h0.264l-3.354,3.81c-0.303-0.188-0.643-0.203-0.811-0.011
			l-1.238,1.41c-0.199,0.226-0.088,0.646,0.248,0.94l0.07,0.062c0.334,0.293,0.768,0.352,0.965,0.125l1.239-1.41
			c0.168-0.192,0.111-0.528-0.116-0.805l3.434-3.903v9.935c-0.381,0.104-0.664,0.449-0.664,0.862c0,0.412,0.283,0.759,0.664,0.861
			v2.168l-7.148,10.42c-0.072,0.105-0.1,0.232-0.076,0.353c-0.713,0.043-1.235,0.179-1.235,0.34c0,0.192,0.762,0.353,1.703,0.353
			c0.938,0,1.703-0.156,1.703-0.353c0-0.157-0.498-0.291-1.188-0.336l6.242-9.097v7.025c0,0.08,0.021,0.152,0.057,0.221
			c-0.733,0.037-1.282,0.177-1.282,0.341c0,0.194,0.764,0.353,1.7,0.353c0.941,0,1.703-0.156,1.703-0.353
			c0-0.164-0.545-0.304-1.28-0.341c0.032-0.065,0.057-0.141,0.057-0.221v-7.025l6.242,9.097c-0.689,0.045-1.188,0.179-1.188,0.336
			c0,0.192,0.763,0.353,1.703,0.353s1.703-0.156,1.703-0.353C38.195,40.472,37.673,40.338,36.96,40.295z M27.789,13.539
			c-0.262,0-0.475-0.214-0.475-0.474V7.503c0-0.263,0.213-0.474,0.475-0.474h0.387c0.096,0,0.18-0.051,0.227-0.131l0.316-0.569
			C28.74,6.3,28.812,6.281,28.9,6.281h0.613c0.09,0,0.156,0.019,0.182,0.048l0.318,0.569c0.047,0.08,0.133,0.131,0.225,0.131h0.388
			c0.263,0,0.474,0.211,0.474,0.474v5.562c0,0.26-0.211,0.474-0.474,0.474H27.789z"/>
		<path d="M24.445,35.441l1.023-1.472c0.072-0.104,0.045-0.241-0.057-0.312c-0.102-0.071-0.24-0.045-0.312,0.056l-1.023,1.474
			c-0.068,0.103-0.045,0.24,0.059,0.312C24.236,35.57,24.375,35.543,24.445,35.441z"/>
		<path d="M33.039,33.971l1.021,1.473c0.069,0.103,0.209,0.127,0.312,0.058c0.104-0.07,0.127-0.211,0.058-0.312l-1.021-1.475
			c-0.072-0.102-0.211-0.127-0.312-0.056C32.995,33.73,32.968,33.867,33.039,33.971z"/>
		<path d="M12.343,22.99l3.793-7.348l5.782,2.954c0.865,0.443,1.931,0.101,2.373-0.768c0.44-0.869,0.101-1.931-0.771-2.375
			L17.162,12.2c-0.084-1.696-1.039-3.307-2.66-4.143c-2.418-1.25-5.394-0.302-6.642,2.118l-4.483,8.688
			c-0.363,0.703-0.535,1.449-0.545,2.189c-0.023,0.142-0.043,0.28-0.043,0.429v16.81c0,1.485,1.207,2.692,2.692,2.692
			c1.488,0,2.693-1.207,2.693-2.692V27.162l4.434,11.533c0.535,1.391,2.093,2.082,3.48,1.551c1.389-0.535,2.082-2.094,1.547-3.482
			L12.343,22.99z"/>
		<circle cx="17.171" cy="3.928" r="3.928"/>
	</g>
</g>
</svg>