<?xml version="1.0" encoding="utf-8"?>
<!-- Generator: Adobe Illustrator 27.7.0, SVG Export Plug-In . SVG Version: 6.00 Build 0)  -->
<svg version="1.1"
	 xmlns="http://www.w3.org/2000/svg" xmlns:xlink="http://www.w3.org/1999/xlink" 
	 viewBox="0 0 167.7 13" xml:space="preserve">
<style type="text/css">
	.st0{fill:#69C63D;}
</style>
<path id="path15" class="st0" d="M26.4,5.5C11.7,5.5,2.6,4.4,0.8,0.1L0.4,0.2
	c0.4,6.1,7.3,7.8,29.2,7.8H60c13.5,0,20,0.4,23.6,4.4H84c3.6-3.9,10.1-4.4,23.4-4.4h32.5c21.2,0,27.2-2.1,27.8-7.8l-0.4-0.1
	c-2.4,4.4-10.5,5.4-25.8,5.4H109c-13.7,0-21.6,0.5-25,4.6h-0.4C80,5.9,71.5,5.5,57.8,5.5H26.4z"/>
</svg>
