<svg version="1.2" baseProfile="tiny-ps" xmlns="http://www.w3.org/2000/svg" viewBox="0 0 1600 675" width="1600" height="675">
	<title>Intel_logo_(2020,_dark_blue)-svg</title>
	<style>
		tspan { white-space:pre }
		.shp0 { fill: #0068b5 } 
		.shp1 { fill: #ffffff } 
	</style>
	<path id="rect4" class="shp0" d="M0 9.41L125.94 9.41L125.94 135.31L0 135.31L0 9.41Z" />
	<g id="g10">
		<path id="path6" fill-rule="evenodd" class="shp1" d="M3.59 665.35L3.59 211.93L122.8 211.93L122.8 665.35L3.59 665.35ZM899.5 669.83C863.19 669.83 832.72 666.69 808.52 659.97C784.76 653.25 765.04 642.5 750.25 627.27C735.46 612.03 724.71 591.87 718.43 567.23C712.16 542.14 709.02 510.77 709.02 473.59L709.02 34.95L828.68 34.95L828.68 211.93L915.18 211.93L915.18 314.08L828.68 314.08L828.68 472.69C828.68 490.61 829.58 505.4 831.37 516.6C833.61 528.25 837.65 537.21 843.92 543.48C850.2 549.75 859.61 554.23 872.16 556.03C882.91 557.82 897.7 558.71 915.18 558.71L915.18 669.83L899.5 669.83ZM1480.34 665.35L1480.34 0L1600 0L1600 665.35L1480.34 665.35ZM643.59 407.72L643.59 664.9L523.03 664.9L523.03 424.3C523.03 387.11 514.06 357.99 497.03 337.38C479.55 316.77 453.11 306.02 418.6 306.02C389.47 306.02 363.92 316.77 342.86 338.28C323.14 358.44 312.83 389.8 311.48 432.36L311.48 665.35L192.72 665.35L192.72 211.93L310.59 211.93L310.59 276.89L317.31 268.38C333 247.77 353.17 231.64 376.47 219.99C400.22 208.34 426.22 202.52 454.9 202.52C514.06 202.52 560.67 220.44 593.84 256.28C627 292.13 644.03 343.2 643.59 407.72ZM1418.49 480.31L1062.18 480.31L1063.53 484.34C1071.15 510.77 1085.49 532.28 1106.55 547.51C1127.62 563.19 1155.41 570.81 1189.02 570.81C1242.8 570.81 1285.83 541.69 1303.75 520.18L1389.8 585.6C1352.16 628.61 1289.41 674.76 1188.12 674.76C1153.17 674.76 1120.45 668.49 1090.87 655.94C1061.29 643.84 1035.74 626.82 1015.13 605.76C994.51 584.7 977.93 559.61 966.27 530.94C954.62 502.26 948.8 471.34 948.8 438.64C948.8 405.93 954.62 375.01 967.17 346.34C979.27 317.66 996.3 292.57 1017.37 271.52C1038.43 250.46 1063.53 233.88 1092.21 221.33C1120.9 209.24 1151.82 202.97 1184.54 202.97C1219.05 202.97 1250.87 208.79 1279.55 220.89C1308.24 232.98 1332.89 249.56 1353.5 271.07C1373.67 292.57 1389.8 317.66 1401.46 345.89C1412.66 374.57 1418.49 405.03 1418.49 437.74L1418.49 480.31ZM1303.75 395.63C1303.75 362.47 1265.21 304.67 1183.19 304.67C1101.18 305.12 1063.08 362.92 1063.08 396.07L1303.75 395.63Z" />
	</g>
</svg>