<?xml version="1.0" encoding="utf-8"?>
<!-- Generator: Adobe Illustrator 27.7.0, SVG Export Plug-In . SVG Version: 6.00 Build 0)  -->
<svg version="1.1" id="Ebene_1" xmlns="http://www.w3.org/2000/svg" xmlns:xlink="http://www.w3.org/1999/xlink" x="0px" y="0px"
	 viewBox="0 0 512 205.1" style="enable-background:new 0 0 512 205.1;" xml:space="preserve">
<style type="text/css">
	.st0{fill:#fff;}
	.st1{fill:#000;}
</style>
<g transform="matrix(1.25 0 0 -1.25 -4.5576 207.33)">
	<g transform="matrix(1.0022 0 0 1.0022 -.0079579 -.36205)">
		<g>
			<path class="st0" d="M403.4,27.9c-3.7,0-6.5,0.8-8.9,3.2l3.1,3.1c1.5-1.5,3.6-2,5.9-2c2.8,0,4.3,1.1,4.3,3c0,0.9-0.2,1.6-0.8,2
				c-0.5,0.4-1,0.7-2.1,0.9l-2.9,0.4c-2.1,0.3-3.6,1-4.7,2c-1.2,1.2-1.7,2.7-1.7,4.8c0,4.3,3.2,7.4,8.5,7.4c3.3,0,5.8-0.8,7.9-2.8
				l-3-3c-1.5,1.5-3.4,1.7-5,1.7c-2.5,0-3.8-1.4-3.8-3.1c0-0.6,0.2-1.3,0.7-1.7c0.5-0.4,1.3-0.8,2.3-1l2.9-0.4
				c2.2-0.3,3.6-0.9,4.6-1.9c1.3-1.2,1.9-3,1.9-5.2C412.4,30.6,408.4,27.9,403.4,27.9"/>
			<path class="st0" d="M374.7,28.1v24.3h16v-4.2h-11.3v-5.7h9.6v-4.2h-9.6v-5.9h11.3v-4.2H374.7z"/>
			<path class="st0" d="M363,46.7c-0.8,1-1.9,1.5-3.5,1.5h-3.6V32.4h3.6c1.6,0,2.7,0.5,3.5,1.5c0.9,1.1,1,2.8,1,6.5
				C364,44.1,363.9,45.6,363,46.7 M366.3,30.5c-1.6-1.6-3.9-2.3-6.4-2.3h-8.8v24.3h8.8c2.5,0,4.8-0.7,6.4-2.3
				c2.7-2.7,2.5-6.1,2.5-9.7C368.8,36.7,369,33.2,366.3,30.5"/>
			<path class="st0" d="M339.2,28.1L329.6,43V28.1h-4.7v24.3h4.2l9.6-14.9v14.9h4.7V28.1H339.2z"/>
			<path class="st0" d="M309.9,45.3l-3.1-8.8h6L309.9,45.3z M315.5,28.1l-1.4,4.3h-8.6l-1.5-4.3H299l8.8,24.3h3.7l8.9-24.3
				L315.5,28.1z"/>
			<path class="st0" d="M280.7,28.1v24.3h4.7V32.4h11v-4.2H280.7z"/>
			<path class="st0" d="M266.2,48.2h-4.5v-6.4h4.5c2.1,0,3.4,1.3,3.4,3.2S268.3,48.2,266.2,48.2 M269.9,28.1l-4.7,9.7h-3.4v-9.7H257
				v24.3h9.5c4.9,0,7.9-3.4,7.9-7.4c0-3.4-2.1-5.5-4.4-6.4l5.4-10.5L269.9,28.1z"/>
			<path class="st0" d="M242.1,45.3l-3.1-8.8h6L242.1,45.3z M247.7,28.1l-1.4,4.3h-8.6l-1.5-4.3h-4.9l8.8,24.3h3.7l8.9-24.3
				L247.7,28.1z"/>
			<path class="st0" d="M218.3,45.3l-3.1-8.8h6L218.3,45.3z M223.9,28.1l-1.4,4.3h-8.6l-1.5-4.3h-4.9l8.8,24.3h3.7l8.9-24.3
				L223.9,28.1z"/>
			<path class="st0" d="M195.3,27.9c-3.7,0-6.5,0.8-8.9,3.2l3.1,3.1c1.5-1.5,3.6-2,5.9-2c2.8,0,4.3,1.1,4.3,3c0,0.9-0.2,1.6-0.8,2
				c-0.5,0.4-1,0.7-2.1,0.9l-2.9,0.4c-2.1,0.3-3.6,1-4.7,2c-1.2,1.2-1.7,2.7-1.7,4.8c0,4.3,3.2,7.4,8.5,7.4c3.3,0,5.8-0.8,7.8-2.8
				l-3-3c-1.5,1.5-3.4,1.7-5,1.7c-2.5,0-3.8-1.4-3.8-3.1c0-0.6,0.2-1.3,0.7-1.7c0.5-0.4,1.3-0.8,2.2-1l2.9-0.4
				c2.2-0.3,3.6-0.9,4.6-1.9c1.3-1.2,1.9-3,1.9-5.2C204.3,30.6,200.3,27.9,195.3,27.9"/>
		</g>
		<g>
			<path class="st0" d="M239.4,68.9c-3.7,0-6.5,0.8-8.9,3.2l3.1,3.1c1.5-1.5,3.6-2,5.9-2c2.8,0,4.3,1.1,4.3,3c0,0.8-0.2,1.6-0.8,2
				c-0.5,0.4-1,0.7-2.1,0.9l-2.9,0.4c-2.1,0.3-3.6,1-4.7,2c-1.2,1.2-1.7,2.7-1.7,4.8c0,4.3,3.2,7.4,8.5,7.4c3.3,0,5.8-0.8,7.8-2.8
				l-3-3c-1.5,1.5-3.4,1.7-5,1.7c-2.5,0-3.8-1.4-3.8-3.1c0-0.6,0.2-1.3,0.7-1.7c0.5-0.4,1.3-0.8,2.3-1l2.9-0.4
				c2.2-0.3,3.6-0.9,4.6-1.9c1.3-1.2,1.9-3,1.9-5.2C248.4,71.5,244.4,68.9,239.4,68.9"/>
			<path class="st0" d="M210.7,69.1v24.3h16v-4.2h-11.3v-5.7h9.6v-4.2h-9.6v-5.9h11.3v-4.2H210.7z"/>
			<path class="st0" d="M199,87.6c-0.8,1-1.9,1.5-3.6,1.5h-3.6V73.3h3.6c1.6,0,2.7,0.5,3.6,1.5c0.9,1.1,1,2.8,1,6.5
				C200,85,199.9,86.5,199,87.6 M202.3,71.4c-1.6-1.6-3.9-2.3-6.4-2.3h-8.8v24.3h8.8c2.5,0,4.8-0.7,6.4-2.3c2.7-2.7,2.5-6.1,2.5-9.7
				C204.8,77.7,205,74.1,202.3,71.4"/>
		</g>
		<g>
			<path class="st0" d="M399.1,130.1V110h-4.7v20.1H388v4.2h17.4v-4.2H399.1z"/>
			<path class="st0" d="M378.6,141h3.8v-4.3h-3.8V141z M376.9,127.1l-3.1-8.8h6L376.9,127.1z M371,141h3.8v-4.3H371V141z M382.5,110
				l-1.4,4.3h-8.6L371,110h-4.9l8.8,24.3h3.7l8.9-24.3H382.5z"/>
			<path class="st0" d="M359.2,130.1V110h-4.7v20.1h-6.3v4.2h17.4v-4.2H359.2z"/>
			<path class="st0" d="M338.2,134.3h4.7V110h-4.7V134.3z"/>
			<path class="st0" d="M323.3,109.8c-3.7,0-6.5,0.8-8.9,3.2l3.1,3.1c1.5-1.5,3.6-2,5.9-2c2.8,0,4.3,1.1,4.3,3c0,0.9-0.2,1.6-0.8,2
				c-0.5,0.4-1,0.7-2.1,0.9l-2.9,0.4c-2.1,0.3-3.6,1-4.7,2c-1.2,1.2-1.7,2.7-1.7,4.8c0,4.3,3.2,7.4,8.5,7.4c3.3,0,5.8-0.8,7.8-2.8
				l-3-3c-1.5,1.5-3.4,1.7-5,1.7c-2.5,0-3.8-1.4-3.8-3.1c0-0.6,0.2-1.3,0.7-1.7c0.5-0.4,1.3-0.8,2.2-1l2.9-0.4
				c2.2-0.3,3.6-0.9,4.6-1.9c1.3-1.2,1.9-3,1.9-5.2C332.3,112.5,328.4,109.8,323.3,109.8"/>
			<path class="st0" d="M302.2,130.1h-4.5v-6.4h4.5c2.1,0,3.4,1.3,3.4,3.2C305.6,128.7,304.3,130.1,302.2,130.1 M305.9,110l-4.7,9.7
				h-3.4V110H293v24.3h9.5c4.9,0,7.9-3.4,7.9-7.4c0-3.4-2.1-5.5-4.4-6.4l5.4-10.5H305.9z"/>
			<path class="st0" d="M271,110v24.3h16v-4.2h-11.3v-5.7h9.6v-4.2h-9.6v-5.9H287V110L271,110z"/>
			<path class="st0" d="M259,110h-3.5l-8,24.3h4.9l4.9-15.8l4.9,15.8h4.9L259,110z"/>
			<path class="st0" d="M238.4,134.3h4.7V110h-4.7V134.3z"/>
			<path class="st0" d="M226.4,110l-9.6,14.9V110H212v24.3h4.2l9.6-14.9v14.9h4.7V110L226.4,110z"/>
			<path class="st0" d="M196.5,109.8c-5,0-8.9,3.4-8.9,8.5v16h4.7v-15.8c0-2.8,1.6-4.5,4.2-4.5c2.6,0,4.2,1.7,4.2,4.5v15.8h4.7v-16
				C205.4,113.2,201.4,109.8,196.5,109.8"/>
		</g>
	</g>
	<g transform="matrix(1.0022 0 0 1.0022 -.0079579 -.36205)">
		<path class="st0" d="M149.5,125.2V27.5H143c-12.2,0-23.4,5.8-29.5,11.6V22.2h15.1l6.2-12H132l-6.6,4.6H117l3-3.3l1-9.4h-2.6
			l-11.7,12.7H88.2l-4-4.6h-2.6l3.1,12H100l-8.2,8.9H61.2l-8.2-8.9h15.2l3.2-12h-2.6l-4,4.6H46.2L34.6,2.1H32l1,9.4l3,3.3h-8.5
			L21,10.3h-2.9l6.2,12h15.3v16.8c-6.1-5.8-17.3-11.5-29.5-11.5H3.6v97.6c0,8.2,6.5,12.8,14.7,12.8c10.1,0,17.5-7.1,21.8-14.3
			l3.5,42.1h16.7c0,0,5.1-7.2,6.6-9.4h18.6c1.5,2.2,6.7,9.4,6.7,9.4h16.3l4.4-42.3c4.3,7.2,11.7,14.4,21.9,14.4
			C143,138,149.5,133.4,149.5,125.2"/>
		<g>
			<g>
				<path class="st1" d="M122.6,117.3c0,1-0.8,1.7-1.7,1.7c-1,0-1.7-0.8-1.7-1.7v-55c0-0.7-0.5-1.2-1.1-1.2c-0.6,0-1.1,0.5-1.1,1.2
					v47.6c0,1-0.8,1.7-1.7,1.7c-1,0-1.7-0.8-1.7-1.7V53.1c0-2.6,2-4.7,4.5-4.7c2.5,0,4.5,2.1,4.5,4.7L122.6,117.3z"/>
				<path class="st1" d="M137.8,123.6c0,1-0.8,1.7-1.7,1.7c-1,0-1.7-0.8-1.7-1.7V63.3c0-0.7-0.5-1.2-1.1-1.2c-0.6,0-1.1,0.5-1.1,1.2
					v61.5c0,1-0.8,1.7-1.7,1.7c-1,0-1.7-0.8-1.7-1.7V46.3c0-2.6,2-4.7,4.5-4.7c2.5,0,4.5,2.1,4.5,4.7V123.6z"/>
			</g>
			<g>
				<g>
					<path class="st1" d="M104,68.5c0,1-0.8,1.7-1.7,1.7c-1,0-1.7-0.8-1.7-1.7V57.3c0-0.7-0.5-1.2-1.1-1.2c-0.6,0-1.1,0.5-1.1,1.2
						v11.2c0,1-0.8,1.7-1.7,1.7c-1,0-1.7-0.8-1.7-1.7V48.2c0-2.6,2-4.7,4.5-4.7c2.5,0,4.5,2.1,4.5,4.7L104,68.5z"/>
					<path class="st1" d="M88.8,63.9c0,1-0.8,1.7-1.7,1.7c-1,0-1.7-0.8-1.7-1.7V52.7c0-0.7-0.5-1.2-1.1-1.2c-0.6,0-1.1,0.5-1.1,1.2
						v11.2c0,1-0.8,1.7-1.7,1.7c-1,0-1.7-0.8-1.7-1.7V43.6c0-2.6,2-4.7,4.5-4.7c2.5,0,4.5,2.1,4.5,4.7V63.9z"/>
					<path class="st1" d="M72.7,63.9c0,1-0.8,1.7-1.7,1.7c-1,0-1.7-0.8-1.7-1.7V52.7c0-0.7-0.5-1.2-1.1-1.2c-0.6,0-1.1,0.5-1.1,1.2
						v11.2c0,1-0.8,1.7-1.7,1.7c-1,0-1.7-0.8-1.7-1.7V43.6c0-2.6,2-4.7,4.5-4.7c2.5,0,4.5,2.1,4.5,4.7L72.7,63.9z"/>
					<path class="st1" d="M57.4,68.5c0,1-0.8,1.7-1.7,1.7c-1,0-1.7-0.8-1.7-1.7V57.3c0-0.7-0.5-1.2-1.1-1.2c-0.6,0-1.1,0.5-1.1,1.2
						v11.2c0,1-0.8,1.7-1.7,1.7c-1,0-1.7-0.8-1.7-1.7V48.2c0-2.6,2-4.7,4.5-4.7c2.5,0,4.5,2.1,4.5,4.7V68.5z"/>
				</g>
				<g>
					<path class="st1" d="M104,100.6c0,1-0.8,1.7-1.7,1.7c-1,0-1.7-0.8-1.7-1.7V89.4c0-0.7-0.5-1.2-1.1-1.2c-0.6,0-1.1,0.5-1.1,1.2
						v11.2c0,1-0.8,1.7-1.7,1.7c-1,0-1.7-0.8-1.7-1.7V80.3c0-2.6,2-4.7,4.5-4.7c2.5,0,4.5,2.1,4.5,4.7L104,100.6z"/>
					<path class="st1" d="M88.8,96c0,1-0.8,1.7-1.7,1.7c-1,0-1.7-0.8-1.7-1.7V84.8c0-0.7-0.5-1.2-1.1-1.2c-0.6,0-1.1,0.5-1.1,1.2V96
						c0,1-0.8,1.7-1.7,1.7c-1,0-1.7-0.8-1.7-1.7V75.7c0-2.6,2-4.7,4.5-4.7c2.5,0,4.5,2.1,4.5,4.7V96z"/>
					<path class="st1" d="M72.7,96c0,1-0.8,1.7-1.7,1.7c-1,0-1.7-0.8-1.7-1.7V84.8c0-0.7-0.5-1.2-1.1-1.2c-0.6,0-1.1,0.5-1.1,1.2V96
						c0,1-0.8,1.7-1.7,1.7c-1,0-1.7-0.8-1.7-1.7V75.7c0-2.6,2-4.7,4.5-4.7c2.5,0,4.5,2.1,4.5,4.7L72.7,96z"/>
					<path class="st1" d="M57.4,100.6c0,1-0.8,1.7-1.7,1.7c-1,0-1.7-0.8-1.7-1.7V89.4c0-0.7-0.5-1.2-1.1-1.2c-0.6,0-1.1,0.5-1.1,1.2
						v11.2c0,1-0.8,1.7-1.7,1.7c-1,0-1.7-0.8-1.7-1.7V80.3c0-2.6,2-4.7,4.5-4.7c2.5,0,4.5,2.1,4.5,4.7V100.6z"/>
				</g>
			</g>
			<g>
				<path class="st1" d="M30.6,53.1c0-2.6,2-4.7,4.5-4.7c2.5,0,4.5,2.1,4.5,4.7v56.8c0,1-0.8,1.7-1.7,1.7c-1,0-1.7-0.8-1.7-1.7V62.4
					c0-0.7-0.5-1.2-1.1-1.2c-0.6,0-1.1,0.5-1.1,1.2v55c0,1-0.8,1.7-1.7,1.7s-1.7-0.8-1.7-1.7L30.6,53.1z"/>
				<path class="st1" d="M15.3,46.3c0-2.6,2-4.7,4.5-4.7c2.5,0,4.5,2.1,4.5,4.7v78.5c0,1-0.8,1.7-1.7,1.7c-1,0-1.7-0.8-1.7-1.7V63.3
					c0-0.7-0.5-1.2-1.1-1.2c-0.6,0-1.1,0.5-1.1,1.2v60.3c0,1-0.8,1.7-1.7,1.7c-1,0-1.7-0.8-1.7-1.7L15.3,46.3z"/>
			</g>
		</g>
		<path class="st1" d="M76.3,122.9l-4.4-3.3l4.4-10l4.5,10L76.3,122.9z"/>
		<g>
			<g>
				<path class="st1" d="M104.3,134.2c0-7.3-5.9-13.2-13.2-13.2c-7.3,0-13.2,5.9-13.2,13.2s5.9,13.2,13.2,13.2
					C98.4,147.4,104.3,141.5,104.3,134.2"/>
				<path class="st0" d="M101.1,134.2c0-5.5-4.5-10-10-10c-5.5,0-10,4.5-10,10c0,5.5,4.5,10,10,10
					C96.6,144.2,101.1,139.7,101.1,134.2"/>
				<path class="st1" d="M96.9,134.2c0-3.2-2.6-5.8-5.8-5.8c-3.2,0-5.8,2.6-5.8,5.8s2.6,5.8,5.8,5.8C94.3,140,96.9,137.4,96.9,134.2
					"/>
			</g>
			<g>
				<path class="st1" d="M74.9,134.2c0-7.3-5.9-13.2-13.2-13.2c-7.3,0-13.2,5.9-13.2,13.2s5.9,13.2,13.2,13.2
					C69,147.4,74.9,141.5,74.9,134.2"/>
				<path class="st0" d="M71.7,134.2c0-5.5-4.5-10-10-10c-5.5,0-10,4.5-10,10c0,5.5,4.5,10,10,10C67.2,144.2,71.7,139.7,71.7,134.2"
					/>
				<path class="st1" d="M67.4,134.2c0-3.2-2.6-5.8-5.8-5.8c-3.2,0-5.8,2.6-5.8,5.8s2.6,5.8,5.8,5.8C64.9,140,67.4,137.4,67.4,134.2
					"/>
			</g>
		</g>
	</g>
</g>
</svg>
